<svg xmlns="http://www.w3.org/2000/svg" xmlns:xlink="http://www.w3.org/1999/xlink" viewBox="0 0 560 420"><defs><style>.cls-1{isolation:isolate;}.cls-2,.cls-7{fill:#e5e5e5;}.cls-2{mix-blend-mode:multiply;}.cls-3{fill:#ffde83;}.cls-15,.cls-4,.cls-5{fill:#fff;}.cls-10,.cls-13,.cls-14,.cls-15,.cls-5,.cls-8,.cls-9{stroke:#3a3836;}.cls-13,.cls-14,.cls-5,.cls-8,.cls-9{stroke-linecap:round;stroke-linejoin:round;}.cls-10,.cls-13,.cls-15,.cls-5,.cls-8{stroke-width:2px;}.cls-6{fill:#a2ecc2;}.cls-14,.cls-8,.cls-9{fill:none;}.cls-9{stroke-width:2.21px;}.cls-10,.cls-13{fill:#fd8753;}.cls-10,.cls-15{stroke-miterlimit:10;}.cls-11{fill:url(#linear-gradient);}.cls-12{fill:url(#linear-gradient-2);}.cls-14{stroke-width:2.17px;}.cls-16{fill:#3a3836;}</style><linearGradient id="linear-gradient" x1="340.75" y1="95.18" x2="392.98" y2="95.18" gradientUnits="userSpaceOnUse"><stop offset="0" stop-color="#ff6d37"/><stop offset="0.54" stop-color="#fa9139"/><stop offset="1" stop-color="#f7ac3b"/></linearGradient><linearGradient id="linear-gradient-2" x1="340.36" y1="80.44" x2="405.76" y2="80.44" xlink:href="#linear-gradient"/></defs><g class="cls-1"><g id="Layer_1" data-name="Layer 1"><rect class="cls-2" x="134.39" y="360.9" width="117.8" height="17.38" rx="7.11"/><rect class="cls-2" x="311.04" y="360.9" width="117.8" height="17.38" rx="7.11"/><circle class="cls-3" cx="415.26" cy="123.55" r="97.52"/><path class="cls-4" d="M459,100.27,463.93,94a4.06,4.06,0,0,1,6.11-.34l9.37,9.57-5.61,7.47Z"/><path class="cls-2" d="M459,100.27,463.93,94a4.06,4.06,0,0,1,6.11-.34l9.37,9.57-5.61,7.47Z"/><path class="cls-5" d="M449.11,136.36s.15-34.3,9-44.46c0,0,1.56,13.9,19.81,14.73,0,0-11.78,17.05-12,32.5Z"/><polygon class="cls-5" points="392.98 161.74 407.1 161.74 408.04 178.7 374.32 172.78 392.98 161.74"/><path class="cls-4" d="M161.08,171.67l-26.66-3.34s-7.69.15-10.26,12.95l-12.39,67.61s-.59,12.77,15.71,13.16l8.94.89L130.7,306.5l-7.2,51.72s.67,17.19,17.87,18.92c0,0,11.61,2.85,21.66-14.13l13.41-55.84H188.5l5.14,52.49s3.8,18,21,17.48c0,0,19.36-.95,17.94-32.22V269.83l16.68-2.65s25.91-1.78,49.14-21c0,0-8.32,72,2.71,120.26,0,0,5.36,22.74,28.67,13,0,0,14.35-1.5,9.85-43l.88-28.79s1.24-3.54,9.75-3.85,10.2,14.07,10.2,14.07l11.85,45.78s3.8,18.17,24.2,15.84c0,0,23.68-6.23,11.69-38.78l-14.64-88.07,16.66-1.18,1.87-4.83-1.34-36.05,39.09-29.32-3.5-19.54L438.6,145.1l-55.75,31.06s13.64-3.93,13.72-38.93L306.75,173.7l4.1,4.58-5.32,6.21S273,192.12,241.46,173.7Z"/><path class="cls-6" d="M472,317.89a28.55,28.55,0,1,0-43.34-32.23"/><path class="cls-6" d="M490.2,337.77A18.15,18.15,0,1,0,467,312.5"/><path class="cls-6" d="M71.35,336.46a28.55,28.55,0,1,1,39.55-36.78"/><path class="cls-6" d="M55.41,358.22a18.15,18.15,0,1,1,20.35-27.66"/><path class="cls-7" d="M320.6,185.81s14.72,17.11,53.72,11.14l-1.26-10.39S344.33,200.16,320.6,185.81Z"/><path class="cls-5" d="M396.83,142.39A50.48,50.48,0,1,1,346.35,91.9,50.48,50.48,0,0,1,396.83,142.39Z"/><path class="cls-8" d="M303.25,116.09c5.54-2,12.66-3.17,27.3-2.83,23.13.55,33.06,9.17,37.16,15,2,2.81,2.45,8.59,2.15,12-1,11.71-11.31,40.83-60.72,36.22"/><ellipse class="cls-9" cx="383.82" cy="149.18" rx="7.92" ry="6.51" transform="translate(180.24 507.13) rotate(-81.61)"/><path class="cls-8" d="M314.16,181.28c-26,59.85-18.12,144.45-13.36,183.35a19.47,19.47,0,0,0,19.87,17.11h0a19.47,19.47,0,0,0,18.94-19.45l0-51.5a6.2,6.2,0,0,1,5.4-6.13l5.86-.75a6.67,6.67,0,0,1,7.32,5l1.22,4.9,2.41,9.69,10.25,41.22a20.11,20.11,0,0,0,19.44,14.94h0a20.11,20.11,0,0,0,19.69-24.19C404.43,322.66,390,255.55,393,223.92"/><path class="cls-8" d="M386.42,175.07s27-18.7,56.19-33.08l18.17,31.08L393,223.92S385.35,216.05,386.42,175.07Z"/><path class="cls-8" d="M310.14,179.5c-20.23,31.61-48.43,46.39-65.71,54.38a17.6,17.6,0,0,0-9.9,19.36h0A17.58,17.58,0,0,0,255.82,267c14.59-3.5,30.18-11.57,41.85-19.72"/><path class="cls-10" d="M176.56,95.13a7.18,7.18,0,1,0-5.5-8.53A7.16,7.16,0,0,0,176.56,95.13Z"/><path class="cls-8" d="M180.74,94.82l1.74,5.11"/><path class="cls-7" d="M189,195.94s23.82,10.79,46.23-2.13l.75-9.32S222.2,200.43,189,195.94Z"/><circle class="cls-5" cx="201.61" cy="146.97" r="50.57"/><path class="cls-8" d="M232.58,270.47h0l-.83,83.11c0,11.43-6.94,23.13-18.4,23-11.27-.13-18.84-8.13-20.34-20.57l-4.28-46.43a3.94,3.94,0,0,0-1.22-2.69,4,4,0,0,0-2.75-1.1c-2.1,0-8.5-.29-8.58,3.75l-12,48.73c-2.33,6.92-4.07,9.58-7.69,13.21a19.34,19.34,0,0,1-33-13.67l10-75.58s8.65-82.21,26.76-104"/><path class="cls-8" d="M157.09,171l-18.54-2.54a12.38,12.38,0,0,0-13.86,10L112,247a12.39,12.39,0,0,0,10.48,14.53l13.26,2"/><polyline class="cls-8" points="116.44 222.81 130.7 225.38 129.13 235.78 114.52 233.17"/><path class="cls-5" d="M171.91,201.42s23,24.91,68.69,29.93a19.45,19.45,0,0,1,17.22,21.88h0a19.45,19.45,0,0,1-20.08,16.87c-22.88-.92-61.49-6.55-77.6-32.92"/><line class="cls-8" x1="235.93" y1="184.49" x2="234.18" y2="229.29"/><path class="cls-8" d="M244.2,177s26.16,14.78,61.33,7.6"/><path class="cls-8" d="M274.53,216.91c-28.73-1-39.35-7.47-39.35-7.47s8.82-15.13,9-32.45"/><polygon class="cls-11" points="340.75 92 358.48 107.27 386.76 110.69 392.98 97.97 360.99 93.93 345.38 79.67 340.75 92"/><polygon class="cls-8" points="340.75 92 358.48 107.27 386.76 110.69 392.98 97.97 360.99 93.93 345.38 79.67 340.75 92"/><polygon class="cls-12" points="361.99 94.93 340.36 74.41 347.35 61.5 381.48 64.65 405.76 85.81 397.83 99.38 361.99 94.93"/><polygon class="cls-8" points="361.99 94.93 340.36 74.41 346.35 62.5 380.48 64.65 404.76 85.81 397.83 99.38 361.99 94.93"/><line class="cls-8" x1="397.83" y1="99.38" x2="397.83" y2="107.05"/><circle class="cls-13" cx="397.67" cy="112.15" r="4.39"/><path class="cls-5" d="M139.65,240.69s11.17,4.74,21.43-2.05"/><path class="cls-5" d="M136.88,257s22.94,4.77,31.78-9.38"/><path class="cls-5" d="M173.67,203.14s-.06-10.62-6-18.65"/><path class="cls-5" d="M180.28,208.6a20.81,20.81,0,0,0-2.8-16.34"/><path class="cls-8" d="M303.25,189.27s-6.35,24.38-3.58,45.2"/><path class="cls-8" d="M373.06,186.56s0,26.35,19.58,43"/><path class="cls-8" d="M394.27,252.66h12.4a5,5,0,0,0,5-5V210.6"/><rect class="cls-8" x="355.78" y="202.51" width="10.32" height="10.61" rx="0.9"/><rect class="cls-8" x="214.78" y="202.51" width="10.32" height="10.61" rx="0.9"/><path class="cls-8" d="M477.55,107.05s5.07-4.06-8.45-13.6a3.31,3.31,0,0,0-4.31.48c-.8,1-.35,1.88,4.46,6l-2.62,3.27"/><path class="cls-8" d="M477.55,107.05s-10.7,15.51-11.59,30.18"/><line class="cls-8" x1="461.48" y1="98.15" x2="464.81" y2="93.9"/><path class="cls-5" d="M447.81,175.09v26.42s16.33,10.68,23.95-8.64L466,175.09"/><circle class="cls-5" cx="456.55" cy="156" r="21"/><path class="cls-14" d="M42.4,381.75c20-38.93,51.84-72.07,91.4-95.81"/><path class="cls-14" d="M395.22,269.26c52.81,22.59,94.61,60.55,119.39,107.33"/><path class="cls-8" d="M241.46,115.3c-14.69-.74-27.34,13.46-28.26,31.71s9.24,33.6,23.93,34.34"/><path class="cls-8" d="M196.52,145.84a7.58,7.58,0,1,0-8,7.19A7.58,7.58,0,0,0,196.52,145.84Z"/><path class="cls-15" d="M234.87,54.09l7,2.29-7,2.28-2.29,7-2.28-7-7-2.28,7-2.29,2.28-7Z"/><path class="cls-15" d="M62.16,238.19l7,2.28-7,2.29-2.29,7-2.28-7-7-2.29,7-2.28,2.28-7Z"/><path class="cls-16" d="M508.25,290.31l4.37,1.42-4.37,1.42-1.42,4.36-1.42-4.36-4.36-1.42,4.36-1.42,1.42-4.37Z"/></g></g></svg>